HIERARCHY
ROOT Hips
{
	OFFSET 0.327225 85.456291 8.060652
	CHANNELS 6 Xposition Yposition Zposition Zrotation Yrotation Xrotation 
	JOINT Spine
	{
		OFFSET 0.000000 8.814246 -2.080107
		CHANNELS 3 Zrotation Yrotation Xrotation
		JOINT Spine1
		{
			OFFSET -0.000000 8.844141 0.000000
			CHANNELS 3 Zrotation Yrotation Xrotation
			JOINT Spine2
			{
				OFFSET 0.000000 11.682268 0.000000
				CHANNELS 3 Zrotation Yrotation Xrotation
				JOINT Spine3
				{
					OFFSET 0.000000 11.746700 0.000000
					CHANNELS 3 Zrotation Yrotation Xrotation
					JOINT Neck
					{
						OFFSET 0.000000 17.658264 0.000000
						CHANNELS 3 Zrotation Yrotation Xrotation
						JOINT Neck1
						{
							OFFSET 0.000000 5.101515 0.000000
							CHANNELS 3 Zrotation Yrotation Xrotation
							JOINT Head
							{
								OFFSET -0.000000 5.101515 -0.000000
								CHANNELS 3 Zrotation Yrotation Xrotation
								JOINT HeadEnd
								{
									OFFSET 0.000000 11.655085 0.000000
									CHANNELS 3 Zrotation Yrotation Xrotation
									End Site
									{
										OFFSET 0.000000 0.000000 0.000000
									}
								}
							}
						}
					}
					JOINT RightShoulder
					{
						OFFSET -2.625389 11.175210 -0.000000
						CHANNELS 3 Zrotation Yrotation Xrotation
						JOINT RightArm
						{
							OFFSET 0.000000 10.434715 0.000000
							CHANNELS 3 Zrotation Yrotation Xrotation
							JOINT RightForeArm
							{
								OFFSET -0.000000 29.628420 -0.000000
								CHANNELS 3 Zrotation Yrotation Xrotation
								JOINT RightHand
								{
									OFFSET 0.000000 22.857611 -0.000000
									CHANNELS 3 Zrotation Yrotation Xrotation
									JOINT RightHandThumb1
									{
										OFFSET -2.867323 3.959563 2.944291
										CHANNELS 3 Zrotation Yrotation Xrotation
										JOINT RightHandThumb2
										{
											OFFSET -0.000000 3.350399 0.000000
											CHANNELS 3 Zrotation Yrotation Xrotation
											JOINT RightHandThumb3
											{
												OFFSET -0.000000 3.756509 0.000000
												CHANNELS 3 Zrotation Yrotation Xrotation
												JOINT RightHandThumb4
												{
													OFFSET -0.000000 3.147345 0.000000
													CHANNELS 3 Zrotation Yrotation Xrotation
													End Site
													{
														OFFSET 0.000000 0.000000 0.000000
													}
												}
											}
										}
									}
									JOINT RightHandIndex1
									{
										OFFSET -0.086752 10.030893 2.345280
										CHANNELS 3 Zrotation Yrotation Xrotation
										JOINT RightHandIndex2
										{
											OFFSET -0.000000 4.061090 -0.000000
											CHANNELS 3 Zrotation Yrotation Xrotation
											JOINT RightHandIndex3
											{
												OFFSET 0.000000 3.248873 -0.000000
												CHANNELS 3 Zrotation Yrotation Xrotation
												JOINT RightHandIndex4
												{
													OFFSET 0.000000 2.639709 -0.000000
													CHANNELS 3 Zrotation Yrotation Xrotation
													End Site
													{
														OFFSET 0.000000 0.000000 0.000000
													}
												}
											}
										}
									}
									JOINT RightHandMiddle1
									{
										OFFSET 0.104102 9.502952 0.006768
										CHANNELS 3 Zrotation Yrotation Xrotation
										JOINT RightHandMiddle2
										{
											OFFSET -0.000000 4.568727 -0.000000
											CHANNELS 3 Zrotation Yrotation Xrotation
											JOINT RightHandMiddle3
											{
												OFFSET -0.000000 3.654981 -0.000000
												CHANNELS 3 Zrotation Yrotation Xrotation
												JOINT RightHandMiddle4
												{
													OFFSET -0.000000 2.741236 -0.000000
													CHANNELS 3 Zrotation Yrotation Xrotation
													End Site
													{
														OFFSET 0.000000 0.000000 0.000000
													}
												}
											}
										}
									}
									JOINT RightHandRing1
									{
										OFFSET 0.086752 8.921708 -2.267442
										CHANNELS 3 Zrotation Yrotation Xrotation
										JOINT RightHandRing2
										{
											OFFSET -0.000000 4.061090 0.000000
											CHANNELS 3 Zrotation Yrotation Xrotation
											JOINT RightHandRing3
											{
												OFFSET 0.000000 3.654981 -0.000000
												CHANNELS 3 Zrotation Yrotation Xrotation
												JOINT RightHandRing4
												{
													OFFSET 0.000000 2.741236 -0.000000
													CHANNELS 3 Zrotation Yrotation Xrotation
													End Site
													{
														OFFSET 0.000000 0.000000 0.000000
													}
												}
											}
										}
									}
									JOINT RightHandPinky1
									{
										OFFSET -0.173504 7.976997 -4.467199
										CHANNELS 3 Zrotation Yrotation Xrotation
										JOINT RightHandPinky2
										{
											OFFSET -0.000000 3.350399 0.000000
											CHANNELS 3 Zrotation Yrotation Xrotation
											JOINT RightHandPinky3
											{
												OFFSET 0.000000 2.842763 -0.000000
												CHANNELS 3 Zrotation Yrotation Xrotation
												JOINT RightHandPinky4
												{
													OFFSET -0.000000 2.639709 0.000000
													CHANNELS 3 Zrotation Yrotation Xrotation
													End Site
													{
														OFFSET 0.000000 0.000000 0.000000
													}
												}
											}
										}
									}
									JOINT RightForeArmEnd
									{
										OFFSET 0.000000 0.000000 0.000000
										CHANNELS 3 Zrotation Yrotation Xrotation
										End Site
										{
											OFFSET 0.000000 0.000000 0.000000
										}
									}
								}
								JOINT RightArmEnd
								{
									OFFSET 0.000000 0.000000 0.000000
									CHANNELS 3 Zrotation Yrotation Xrotation
									End Site
									{
										OFFSET 0.000000 0.000000 0.000000
									}
								}
							}
						}
					}
					JOINT LeftShoulder
					{
						OFFSET 2.625389 11.175210 0.000000
						CHANNELS 3 Zrotation Yrotation Xrotation
						JOINT LeftArm
						{
							OFFSET -0.000000 10.813635 0.000000
							CHANNELS 3 Zrotation Yrotation Xrotation
							JOINT LeftForeArm
							{
								OFFSET 0.000000 28.724781 -0.000000
								CHANNELS 3 Zrotation Yrotation Xrotation
								JOINT LeftHand
								{
									OFFSET 0.644384 25.716167 -0.328871
									CHANNELS 3 Zrotation Yrotation Xrotation
									JOINT LeftHandThumb1
									{
										OFFSET 2.867323 3.959563 2.944291
										CHANNELS 3 Zrotation Yrotation Xrotation
										JOINT LeftHandThumb2
										{
											OFFSET 0.000000 3.350399 -0.000000
											CHANNELS 3 Zrotation Yrotation Xrotation
											JOINT LeftHandThumb3
											{
												OFFSET 0.000000 3.756509 0.000000
												CHANNELS 3 Zrotation Yrotation Xrotation
												JOINT LeftHandThumb4
												{
													OFFSET 0.000000 3.100000 0.000000
													CHANNELS 3 Zrotation Yrotation Xrotation
													End Site
													{
														OFFSET 0.000000 0.000000 0.000000
													}
												}
											}
										}
									}
									JOINT LeftHandIndex1
									{
										OFFSET 0.086752 10.030893 2.345280
										CHANNELS 3 Zrotation Yrotation Xrotation
										JOINT LeftHandIndex2
										{
											OFFSET 0.000000 4.061090 0.000000
											CHANNELS 3 Zrotation Yrotation Xrotation
											JOINT LeftHandIndex3
											{
												OFFSET -0.000000 3.248873 -0.000000
												CHANNELS 3 Zrotation Yrotation Xrotation
												JOINT LeftHandIndex4
												{
													OFFSET -0.000000 2.639709 -0.000000
													CHANNELS 3 Zrotation Yrotation Xrotation
													End Site
													{
														OFFSET 0.000000 0.000000 0.000000
													}
												}
											}
										}
									}
									JOINT LeftHandMiddle1
									{
										OFFSET -0.104102 9.502952 0.006768
										CHANNELS 3 Zrotation Yrotation Xrotation
										JOINT LeftHandMiddle2
										{
											OFFSET 0.000000 4.568727 0.000000
											CHANNELS 3 Zrotation Yrotation Xrotation
											JOINT LeftHandMiddle3
											{
												OFFSET -0.000000 3.654981 -0.000000
												CHANNELS 3 Zrotation Yrotation Xrotation
												JOINT LeftHandMiddle4
												{
													OFFSET -0.000000 2.741236 -0.000000
													CHANNELS 3 Zrotation Yrotation Xrotation
													End Site
													{
														OFFSET 0.000000 0.000000 0.000000
													}
												}
											}
										}
									}
									JOINT LeftHandRing1
									{
										OFFSET -0.086752 8.921708 -2.267442
										CHANNELS 3 Zrotation Yrotation Xrotation
										JOINT LeftHandRing2
										{
											OFFSET 0.000000 4.061090 0.000000
											CHANNELS 3 Zrotation Yrotation Xrotation
											JOINT LeftHandRing3
											{
												OFFSET -0.000000 3.654981 -0.000000
												CHANNELS 3 Zrotation Yrotation Xrotation
												JOINT LeftHandRing4
												{
													OFFSET -0.000000 2.741236 -0.000000
													CHANNELS 3 Zrotation Yrotation Xrotation
													End Site
													{
														OFFSET 0.000000 0.000000 0.000000
													}
												}
											}
										}
									}
									JOINT LeftHandPinky1
									{
										OFFSET 0.173504 7.976997 -4.467199
										CHANNELS 3 Zrotation Yrotation Xrotation
										JOINT LeftHandPinky2
										{
											OFFSET 0.000000 3.350399 0.000000
											CHANNELS 3 Zrotation Yrotation Xrotation
											JOINT LeftHandPinky3
											{
												OFFSET 0.000000 2.842763 0.000000
												CHANNELS 3 Zrotation Yrotation Xrotation
												JOINT LeftHandPinky4
												{
													OFFSET 0.000000 2.639709 -0.000000
													CHANNELS 3 Zrotation Yrotation Xrotation
													End Site
													{
														OFFSET 0.000000 0.000000 0.000000
													}
												}
											}
										}
									}
									JOINT LeftForeArmEnd
									{
										OFFSET 0.000000 0.000000 0.000000
										CHANNELS 3 Zrotation Yrotation Xrotation
										End Site
										{
											OFFSET 0.000000 0.000000 0.000000
										}
									}
								}
								JOINT LeftArmEnd
								{
									OFFSET 0.000000 0.000000 0.000000
									CHANNELS 3 Zrotation Yrotation Xrotation
									End Site
									{
										OFFSET 0.000000 0.000000 0.000000
									}
								}
							}
						}
					}
				}
			}
		}
	}
	JOINT RightUpLeg
	{
		OFFSET -11.289943 0.000000 -0.000000
		CHANNELS 3 Zrotation Yrotation Xrotation
		JOINT RightLeg
		{
			OFFSET -0.000000 -38.200325 -0.000000
			CHANNELS 3 Zrotation Yrotation Xrotation
			JOINT RightFoot
			{
				OFFSET -0.000000 -39.900856 0.000000
				CHANNELS 3 Zrotation Yrotation Xrotation
				JOINT RightToeBase
				{
					OFFSET 0.000000 -0.000000 15.261641
					CHANNELS 3 Zrotation Yrotation Xrotation
					JOINT RightToeBaseEnd
					{
						OFFSET -0.000000 -0.000000 7.370709
						CHANNELS 3 Zrotation Yrotation Xrotation
						End Site
						{
							OFFSET 0.000000 0.000000 0.000000
						}
					}
				}
				JOINT RightLegEnd
				{
					OFFSET 0.000000 0.000000 0.000000
					CHANNELS 3 Zrotation Yrotation Xrotation
					End Site
					{
						OFFSET 0.000000 0.000000 0.000000
					}
				}
			}
			JOINT RightUpLegEnd
			{
				OFFSET 0.000000 0.000000 0.000000
				CHANNELS 3 Zrotation Yrotation Xrotation
				End Site
				{
					OFFSET 0.000000 0.000000 0.000000
				}
			}
		}
	}
	JOINT LeftUpLeg
	{
		OFFSET 11.315661 -0.000000 0.000000
		CHANNELS 3 Zrotation Yrotation Xrotation
		JOINT LeftLeg
		{
			OFFSET -0.000000 -38.200325 -0.000000
			CHANNELS 3 Zrotation Yrotation Xrotation
			JOINT LeftFoot
			{
				OFFSET -0.000000 -39.900856 0.000000
				CHANNELS 3 Zrotation Yrotation Xrotation
				JOINT LeftToeBase
				{
					OFFSET 0.000000 -0.000000 15.261641
					CHANNELS 3 Zrotation Yrotation Xrotation
					JOINT LeftToeBaseEnd
					{
						OFFSET -0.000000 0.000000 7.539996
						CHANNELS 3 Zrotation Yrotation Xrotation
						End Site
						{
							OFFSET 0.000000 0.000000 0.000000
						}
					}
				}
				JOINT LeftLegEnd
				{
					OFFSET 0.000000 0.000000 0.000000
					CHANNELS 3 Zrotation Yrotation Xrotation
					End Site
					{
						OFFSET 0.000000 0.000000 0.000000
					}
				}
			}
			JOINT LeftUpLegEnd
			{
				OFFSET 0.000000 0.000000 0.000000
				CHANNELS 3 Zrotation Yrotation Xrotation
				End Site
				{
					OFFSET 0.000000 0.000000 0.000000
				}
			}
		}
	}
}
MOTION
Frames: 4
Frame Time: 0.016667
-6.673183 86.816414 8.354521 -1.868184 5.332360 -21.877668 3.142906 -0.740344 9.797765 0.424345 -0.332655 2.375883 0.603287 -2.776271 13.642207 -0.400270 -0.784038 9.613901 2.681508 1.712577 16.959751 -0.081729 2.715017 1.765301 -0.777130 -0.215373 -21.322689 0.000000 0.000000 0.000000 91.884476 -0.500293 12.068748 52.424774 -31.599186 15.111846 -0.464561 13.319628 35.059624 12.956089 26.301493 2.134846 -4.000949 0.628336 46.594364 0.000018 -0.000002 9.320653 0.000007 0.000044 6.903554 0.000026 0.000002 -0.000034 15.873985 1.141563 -5.894630 11.301051 -0.036328 -0.333158 11.169341 0.050677 -0.341107 -0.000025 0.000006 -0.000013 14.134605 0.478501 -7.357884 10.362123 -0.060504 -0.130921 10.305855 0.009295 -0.108606 -0.000016 -0.000031 0.000013 14.207558 -0.624127 -8.027111 10.311345 0.138028 0.111579 10.364368 -0.009331 0.088473 0.000000 -0.000213 -0.000014 13.890603 -1.678013 -10.050703 9.626857 0.269573 0.229358 9.688383 -0.036868 0.172971 -0.000059 0.000008 -0.000033 0.000000 0.000000 0.000000 0.000000 0.000000 0.000000 -89.927834 0.019009 9.842125 -61.371754 25.041023 4.793911 -0.839227 -8.420319 44.947807 -8.053424 -28.575405 -10.393018 4.680915 -0.684713 46.710274 -0.000001 0.000030 10.484795 0.000132 0.000002 7.497950 -0.000523 -0.000001 -0.000314 -14.573380 1.134162 -6.691544 -9.723079 -0.042742 0.307045 -9.630009 0.057544 0.294355 0.000028 0.000562 0.000010 -13.641588 0.472945 -8.413516 -8.877576 -0.065178 0.114116 -8.878171 0.011760 0.100635 -0.000054 -0.000023 0.000063 -14.207932 -0.569565 -9.298930 -9.222536 0.133982 -0.138761 -9.076388 -0.014376 -0.087235 0.000166 0.000004 -0.000002 -14.005084 -1.708025 -10.534066 -8.986537 0.275129 -0.277422 -8.902965 -0.041397 -0.272046 -0.000082 0.000012 -0.000060 0.000000 0.000000 0.000000 0.000000 0.000000 0.000000 -0.348218 -5.767305 21.735178 -0.169770 -0.673715 14.559002 -2.425102 -11.074990 11.252954 -1.179181 1.096653 -15.511502 0.000000 0.000000 0.000000 0.000000 0.000000 0.000000 0.000000 0.000000 0.000000 7.910157 -5.735596 16.346292 0.406364 0.957418 22.861294 -2.618725 4.289814 8.565378 0.924470 -1.044398 -18.685217 0.000000 0.000000 0.000000 0.000000 0.000000 0.000000 0.000000 0.000000 0.000000 
-6.686862 86.814857 8.352142 -1.890817 5.312286 -21.872023 3.151977 -0.739263 9.800933 0.417791 -0.326634 2.382182 0.628292 -2.791372 13.641373 -0.386749 -0.783192 9.612824 2.766553 1.660693 17.035755 -0.081847 2.688048 1.790089 -0.766418 -0.208622 -21.342680 0.000000 0.000000 0.000000 91.911987 -0.506346 12.058609 52.332382 -31.871981 15.193420 -0.444009 13.165317 34.424557 12.693492 25.706738 1.850253 -4.001190 0.629061 46.596722 0.000018 -0.000002 9.329659 0.000007 0.000044 6.910900 0.000026 0.000003 -0.000034 15.837794 1.138352 -5.981331 11.305700 -0.037156 -0.331348 11.173556 0.049682 -0.339588 -0.000024 0.000006 -0.000013 14.094046 0.477243 -7.440929 10.364306 -0.060794 -0.129973 10.305129 0.008982 -0.107697 -0.000016 -0.000032 0.000013 14.158416 -0.623100 -8.087318 10.309153 0.138195 0.110649 10.360388 -0.008944 0.087657 0.000000 -0.000201 -0.000014 13.820271 -1.676026 -10.082498 9.615510 0.270595 0.221762 9.673063 -0.035432 0.167560 -0.000058 0.000008 -0.000034 0.000000 0.000000 0.000000 0.000000 0.000000 0.000000 -89.929726 0.016024 9.854018 -61.368557 25.230097 4.864422 -0.838621 -8.359442 44.775955 -7.876765 -28.365351 -10.593429 4.689142 -0.685856 46.712349 -0.000001 0.000030 10.498502 0.000132 0.000002 7.508956 -0.000521 -0.000001 -0.000314 -14.552418 1.131530 -6.760456 -9.695270 -0.044275 0.300968 -9.602190 0.055949 0.288195 0.000028 0.000572 0.000010 -13.602740 0.471700 -8.474348 -8.845159 -0.065801 0.111875 -8.845881 0.011156 0.098544 -0.000032 -0.000023 0.000062 -14.154487 -0.568169 -9.344129 -9.191192 0.134671 -0.135210 -9.044144 -0.013725 -0.084708 0.000155 0.000004 -0.000002 -13.947088 -1.704692 -10.567434 -8.954645 0.276475 -0.267983 -8.874934 -0.039509 -0.265291 -0.000094 0.000012 -0.000059 0.000000 0.000000 0.000000 0.000000 0.000000 0.000000 -0.304903 -5.736847 21.729441 -0.169530 -0.672421 14.542134 -2.432788 -11.052160 11.268291 -1.175537 1.095277 -15.539182 0.000000 0.000000 0.000000 0.000000 0.000000 0.000000 0.000000 0.000000 0.000000 7.932096 -5.725882 16.334295 0.406641 0.957940 22.886686 -2.622336 4.277641 8.542411 0.922633 -1.042521 -18.696218 0.000000 0.000000 0.000000 0.000000 0.000000 0.000000 0.000000 0.000000 0.000000 
-6.701396 86.813736 8.348957 -1.914147 5.297774 -21.865179 3.163533 -0.738760 9.801668 0.409920 -0.319512 2.389333 0.658382 -2.807838 13.639336 -0.377127 -0.781460 9.612324 2.845552 1.604293 17.116959 -0.084104 2.654084 1.815508 -0.753979 -0.202177 -21.369713 0.000000 0.000000 0.000000 91.932541 -0.510962 12.045586 52.271908 -32.155746 15.254288 -0.423064 13.008778 33.806431 12.467456 25.157345 1.601620 -3.998207 0.629382 46.597816 0.000018 -0.000002 9.330162 0.000008 0.000044 6.912447 0.000026 0.000003 -0.000034 15.815724 1.135073 -6.066413 11.314013 -0.037715 -0.329691 11.181193 0.048895 -0.338014 -0.000024 0.000006 -0.000013 14.067340 0.476050 -7.524064 10.370212 -0.061016 -0.129048 10.307532 0.008740 -0.106859 -0.000016 -0.000034 0.000014 14.121840 -0.622121 -8.153546 10.310216 0.138270 0.109960 10.359550 -0.008643 0.087035 0.000000 -0.000181 -0.000014 13.765337 -1.673898 -10.122398 9.607140 0.271163 0.215279 9.660643 -0.034434 0.163218 -0.000060 0.000007 -0.000034 0.000000 0.000000 0.000000 0.000000 0.000000 0.000000 -89.927681 0.013915 9.862125 -61.356937 25.435890 4.944105 -0.836768 -8.301950 44.632782 -7.740416 -28.143576 -10.771348 4.698000 -0.686910 46.714367 -0.000001 0.000030 10.512086 0.000133 0.000002 7.520548 -0.000516 -0.000001 -0.000306 -14.536997 1.128753 -6.828003 -9.670870 -0.045680 0.295227 -9.577224 0.054495 0.282359 0.000028 0.000582 0.000010 -13.570916 0.470446 -8.535788 -8.816469 -0.066371 0.109756 -8.816871 0.010604 0.096549 -0.000015 -0.000023 0.000060 -14.109911 -0.566858 -9.393330 -9.164387 0.135205 -0.131873 -9.015901 -0.013161 -0.082382 0.000148 0.000004 -0.000002 -13.896277 -1.701568 -10.607171 -8.927415 0.277330 -0.259298 -8.851617 -0.037900 -0.259051 -0.000109 0.000012 -0.000059 0.000000 0.000000 0.000000 0.000000 0.000000 0.000000 -0.259803 -5.704858 21.718403 -0.169339 -0.671177 14.529717 -2.439944 -11.034841 11.283192 -1.172386 1.093386 -15.569620 0.000000 0.000000 0.000000 0.000000 0.000000 0.000000 0.000000 0.000000 0.000000 7.952600 -5.721980 16.319462 0.406923 0.958387 22.912498 -2.627246 4.261938 8.520175 0.919992 -1.040470 -18.708824 0.000000 0.000000 0.000000 0.000000 0.000000 0.000000 0.000000 0.000000 0.000000 
-6.716140 86.813148 8.344753 -1.936871 5.289073 -21.856230 3.177250 -0.739152 9.799048 0.401271 -0.311608 2.395885 0.693136 -2.825988 13.636763 -0.372713 -0.779161 9.613394 2.913887 1.546714 17.204762 -0.088351 2.615317 1.842625 -0.740299 -0.195801 -21.405416 0.000000 0.000000 0.000000 91.945862 -0.514268 12.027836 52.241695 -32.442398 15.295930 -0.402790 12.851633 33.217770 12.282964 24.673054 1.395552 -3.992351 0.629349 46.597694 0.000018 -0.000003 9.322523 0.000008 0.000044 6.908505 0.000026 0.000003 -0.000034 15.811165 1.131850 -6.143112 11.326461 -0.037881 -0.328415 11.192914 0.048447 -0.336583 -0.000024 0.000006 -0.000013 14.056645 0.474995 -7.601099 10.380239 -0.061126 -0.128233 10.313550 0.008615 -0.106162 -0.000016 -0.000035 0.000014 14.098048 -0.621293 -8.221571 10.314244 0.138191 0.109564 10.361477 -0.008490 0.086648 0.000000 -0.000152 -0.000014 13.725717 -1.671782 -10.167573 9.601173 0.271124 0.210214 9.650902 -0.034027 0.160270 -0.000065 0.000007 -0.000034 0.000000 0.000000 0.000000 0.000000 0.000000 0.000000 -89.921257 0.013221 9.864120 -61.336563 25.651352 5.034996 -0.832510 -8.246826 44.521160 -7.643886 -27.931889 -10.925863 4.708282 -0.687899 46.716492 -0.000001 0.000030 10.526755 0.000134 0.000003 7.533890 -0.000509 -0.000001 -0.000290 -14.523620 1.125980 -6.888875 -9.649081 -0.046845 0.289994 -9.554187 0.053281 0.277003 0.000028 0.000589 0.000010 -13.543327 0.469243 -8.593392 -8.790465 -0.066848 0.107801 -8.790026 0.010142 0.094692 -0.000006 -0.000024 0.000058 -14.070824 -0.565693 -9.443859 -9.139886 0.135556 -0.128850 -8.989512 -0.012714 -0.080306 0.000148 0.000004 -0.000002 -13.848542 -1.698760 -10.651475 -8.902123 0.277624 -0.251591 -8.830194 -0.036684 -0.253490 -0.000127 0.000012 -0.000059 0.000000 0.000000 0.000000 0.000000 0.000000 0.000000 -0.214832 -5.672580 21.700865 -0.169229 -0.670058 14.521803 -2.446647 -11.023719 11.297873 -1.170000 1.090988 -15.602471 0.000000 0.000000 0.000000 0.000000 0.000000 0.000000 0.000000 0.000000 0.000000 7.970635 -5.722289 16.302050 0.407155 0.958609 22.936045 -2.633044 4.242544 8.499827 0.916352 -1.038247 -18.722301 0.000000 0.000000 0.000000 0.000000 0.000000 0.000000 0.000000 0.000000 0.000000 
